<?xml version="1.0" encoding="utf-8"?>
<!-- Generator: Adobe Illustrator 18.1.0, SVG Export Plug-In . SVG Version: 6.00 Build 0)  -->
<svg version="1.1" id="Layer_1" xmlns="http://www.w3.org/2000/svg" xmlns:xlink="http://www.w3.org/1999/xlink" x="0px" y="0px"
	 viewBox="0 0 158.1 158.1" enable-background="new 0 0 158.1 158.1" xml:space="preserve">
<g>
	<circle fill="#DB4933" stroke="#FFFFFF" stroke-width="5" stroke-miterlimit="10" cx="79" cy="79" r="76.5"/>
	<g>
		<path fill="#FFFFFF" d="M110.5,77.1l-17.5-21c-0.6-0.8-1.6-1.2-2.5-1.2c-0.8,0-1.5,0.3-2.1,0.8c-1.4,1.2-1.6,3.3-0.4,4.6l13,15.6
			l-50.9,0c-1.8,0-3.3,1.5-3.3,3.3c0,1.8,1.5,3.3,3.3,3.3l50.9,0L88,98c-1.2,1.4-1,3.5,0.4,4.6c0.6,0.5,1.3,0.8,2.1,0.8h0
			c1,0,1.9-0.4,2.5-1.2l17.5-21c0.5-0.6,0.8-1.3,0.8-2.1C111.3,78.4,111,77.7,110.5,77.1z"/>
	</g>
</g>
</svg>
