<?xml version="1.0" encoding="utf-8"?>
<!-- Generator: Adobe Illustrator 18.1.0, SVG Export Plug-In . SVG Version: 6.00 Build 0)  -->
<svg version="1.1" id="Layer_1" xmlns="http://www.w3.org/2000/svg" xmlns:xlink="http://www.w3.org/1999/xlink" x="0px" y="0px"
	 viewBox="12.5 294.6 587.4 195.9" enable-background="new 12.5 294.6 587.4 195.9" xml:space="preserve">
<g>
	<path fill="#FFFFFF" d="M97.8,386.6c0-0.5,0.1-1,1.2-1.3c5-1.9,11.6-8.1,11.6-19.4c0-14.8-11.1-30.1-39.8-30.1
		c-11.4,0-24.5,1-34.9,1c-7.5,0-12.2-1-17.6-1c-4.4,0-5.8,2.5-5.8,5.4c0,1.9,0.4,2.7,2.3,5.6c1.6,2.3,1.7,3.1,1.7,11.6v58.2
		c0,8-0.2,9.4-1.7,11.7c-1.9,3.1-2.3,3.6-2.3,5.7c0,1.6,1,5.3,5.2,5.3c4.6,0,10.2-1,15.9-1c4.8,0,26.2,1.5,31.1,1.5
		c9.4,0,22.4-0.6,30.8-4.6c14.6-6.8,17.2-20.6,17.2-26.4v0.1c0-10.8-4.8-16.6-14.2-21.3C98.1,387.2,97.8,386.9,97.8,386.6
		L97.8,386.6z M73.7,369.3c0,6.2-4.6,9-10.3,9c-7.9,0-8-0.5-8-5v-7.5c0-3.3,0.1-5,6.8-5C68.2,360.8,73.7,362.4,73.7,369.3
		L73.7,369.3z M74.8,403.9c0,6.3-4.6,9.2-10.5,9.2c-9,0-9-0.7-9-5v-8.2c0-3.9,0.7-5,6.3-5C68.2,394.8,74.8,396.1,74.8,403.9
		L74.8,403.9z"/>
	<path fill="#FFFFFF" d="M120.7,416.9c0,8-0.1,9.4-1.7,11.7c-2.1,3.1-2.2,3.6-2.2,5.4c0,1.3,0.5,5.4,5.3,5.4c3.5,0,8.1-1,18.4-1
		c8,0,14.6,1,17.6,1c4.4,0,5.1-3.5,5.1-5.3c0-2.1-0.5-2.8-2.2-5.7c-1.2-1.9-1.7-2.8-1.7-11.7v-38.3c0-9.1,0.4-9.8,1.7-11.7
		c1.9-3,2.2-3.5,2.2-5.6c0-1.8-0.5-5.3-5.4-5.3c-4.1,0-9.7,1.6-16.7,1.6c-8.5,0-13.4-1.6-19-1.6c-3.4,0-5.3,2.1-5.3,5.4
		c0,1.9,0.4,2.5,2.2,5.4c1.6,2.3,1.7,3.5,1.7,11.7L120.7,416.9L120.7,416.9z"/>
	<path fill="#FFFFFF" d="M254.7,386.7c0-13.6-8-19.1-8-21.6c0-1,1.7-2.7,2.9-3.6c3.1-3.1,5.1-7.9,5.1-12.8c0-5.9-3-13.3-13-13.3
		c-9.6,0-11.6,6.1-11.6,9.2c0,4.8,4.4,6.1,4.4,9.1c0,1.5-1.1,3.1-2.8,3.1c-2.3,0-10-2.9-21.4-2.9c-23,0-43.9,8-43.9,33.8v0.1
		c0,24.3,19.7,32.1,41.4,32.1c2.3,0,5.1-0.5,7.5-0.5c2.9,0,4.2,2.1,4.2,4.1c0,6.1-9.7,6.1-11.9,6.1c-6.2,0-11.6-0.6-20.6-3.1
		c-2.8-0.7-7.1-2.1-8.4-2.1c-3.3,0-4.2,3.4-4.6,4.8c-1,3.6-2.5,8.1-3.6,10.7c-2.8,6.2-3.1,6.9-3.1,9c0,2.8,2.9,4.5,6.8,6.1
		c3,1.1,16.1,5.4,35.6,5.4c18,0,26.8-3.8,34-9.7c7.7-6.2,11.5-13.8,11.5-23c0-6.1-2.1-12.5-5.9-16.6c-1.6-1.7-1.8-2.1-1.8-3
		c0-0.5,0-1.1,1.5-2.8C252.9,399.9,254.7,392.7,254.7,386.7L254.7,386.7z M219.4,386.7c0,5.2-4.4,8-9.2,8c-4.7,0-9.1-2.5-9.1-7.6
		c0-5,4.6-7.7,9.1-7.7h0.1C214.7,379.4,219.4,381.8,219.4,386.7L219.4,386.7z"/>
	<path fill="#FFFFFF" d="M359.5,408c0-10.8-4.8-16.6-14.2-21.3c-0.7-0.4-1-0.7-1-1.1c0-0.5,0.1-1,1.2-1.3c5-1.9,11.6-8.1,11.6-19.4
		c0-14.8-11.1-30.1-39.8-30.1c-11.4,0-24.5,1-34.9,1c-7.5,0-12.2-1-17.6-1c-4.4,0-5.8,2.5-5.8,5.4c0,1.9,0.4,2.7,2.3,5.6
		c1.6,2.3,1.7,3.1,1.7,11.6v58.2c0,8-0.2,9.4-1.7,11.7c-1.9,3.1-2.3,3.6-2.3,5.7c0,1.6,1,5.3,5.2,5.3c4.6,0,10.2-1,15.9-1
		c4.8,0,26.2,1.5,31.1,1.5c9.4,0,22.4-0.6,30.8-4.6c14.6-6.8,17.2-20.6,17.2-26.4v0.1L359.5,408L359.5,408z M301.9,364.8
		c0-3.3,0.1-5,6.8-5c5.9,0,11.5,1.6,11.5,8.5c0,6.2-4.6,9-10.3,9c-7.9,0-8-0.5-8-5V364.8L301.9,364.8z M301.9,398.8
		c0-3.9,0.7-5,6.3-5c6.4,0,13.1,1.2,13.1,9.1c0,6.3-4.6,9.2-10.5,9.2c-9,0-9-0.7-9-5v-8.4L301.9,398.8L301.9,398.8z M364.4,415.9
		c0,8-0.2,9.4-1.7,11.7c-1.9,3.1-2.2,3.6-2.2,5.4c0,1.5,0.5,5.4,5.3,5.4c3.6,0,11.4-1,17.4-1c7.6,0,14,1,16.7,1
		c4.4,0,5.2-3.5,5.2-5.3c0-2.1-0.5-2.8-2.2-5.7c-1.2-1.9-1.7-2.8-1.7-11.7v-73.5c0-2.7,0-7.5-4.4-7.5c-1.7,0-8,1-14.4,1
		c-5.4,0-10.9-1-16.3-1c-2.1,0-5.8,0.6-5.8,5.4c0,1.9,0.2,2.5,2.2,5.6c1.5,2.3,1.7,2.8,1.7,11.6v58.5h0.2V415.9z M447.5,364
		c0-5.8-0.5-9.2-5.7-9.2c-2.1,0-7,1-12.3,1c-6.3,0-13.6-1-17.7-1c-5.2,0-5.4,4.5-5.4,5.4c0,1.9,0.4,2.5,2.3,5.4
		c1.3,2.1,1.7,2.8,1.7,15.5c0,3.8-1.1,22.3-1.1,26.4c0,17.8,7.4,32.2,27.2,32.2c8.1,0,14.9-2.2,20.7-7.4c1.2-1.1,2.2-2.1,2.7-2.1
		c0.7,0,0.7,0.2,1.3,2.8c0.6,3.3,1.2,5.4,5.3,5.4c3.1,0,8.4-1,12-1c5.8,0,11.6,1,16,1c4.6,0,5.3-3.8,5.3-5.3c0-1.9-0.2-2.5-2.2-5.7
		c-1.6-2.5-1.7-2.7-1.7-11.7V364c0-5.4,0-9.2-5.7-9.2c-3.1,0-7.4,1-12.8,1c-6.3,0-13.3-1-17.6-1c-5.1,0-5.3,4.4-5.3,5.4
		c0,1.8,0.2,2.3,2.2,5.4c1.5,2.3,1.7,2.7,1.7,11.7l-0.1,21.7c0,0.6,0.2,3.9,0.2,4.7c0,3-1.8,5.1-5,5.1c-6.3,0-6.3-6.7-6.3-13.6V364
		H447.5z M583.8,403.8c4.7,0,6.4-1.7,6.4-8.6c0-27.7-15.7-42.4-43.1-42.4c-32.7,0-45.5,20.3-45.5,44.1c0,30.9,20.6,43.7,49.3,43.7
		c10.8,0,21.3-1.7,25.2-2.7c4.6-1.1,5.9-2.3,6.4-5.1c0.7-3.9,1.5-8.5,2.5-11.9c1.2-3.8,2.1-6.7,2.1-7.7c0-1.3-1.2-3.4-3.8-3.4
		c-1.2,0-5.3,1.1-8,1.6c-8,1.6-12.2,1.9-18.6,1.9c-4.7,0-16.2-0.7-16.2-7.9c0-1.7,1.2-1.7,4.1-1.7h39.2V403.8z M543.5,389.3
		c-3.4,0-3.9-1-3.9-2.8c0-5.1,3.5-8.7,8.6-8.7c5.2,0,8.5,3.4,8.5,8.6c0,2.1-1,2.9-5.2,2.9H543.5L543.5,389.3z"/>
	<path fill="#FFFFFF" d="M599.9,361.1c0-3.1-2.7-5.6-6.1-5.6s-6.1,2.4-6.1,5.6c0,3.1,2.7,5.6,6.1,5.6S599.9,364.2,599.9,361.1
		L599.9,361.1z M599,361.1c0,2.7-2.2,4.7-5.1,4.7s-5.1-2.1-5.1-4.7c0-2.7,2.3-4.7,5.1-4.7S599,358.4,599,361.1L599,361.1z
		 M595.2,361.6c0.6-0.1,1.5-0.6,1.5-1.8c0-1.2-1-1.9-2.5-1.9h-2.5v6.5h1.5v-2.5h0.7l1.5,2.5h1.7L595.2,361.6L595.2,361.6z
		 M595.1,359.7c0,0.7-0.6,0.8-1.3,0.8H593v-1.8h0.8C594.4,358.9,595.1,359,595.1,359.7L595.1,359.7z"/>
	<path fill="#FFFFFF" d="M263.7,486.3c0,0,4,4.2,11.3,4.2c6.9,0,11-3.9,11-8.7c0-9.3-14-8.8-14-12.8c0-1.8,1.8-2.7,3.6-2.7
		c4.5,0,7.1,2.5,7.1,2.5l2.7-5.3c0,0-3.1-3.3-9.7-3.3c-6.2,0-11,3.1-11,8.5c0,9.3,14,8.7,14,13.1c0,1.7-1.8,2.7-3.8,2.7
		c-4.7,0-7.9-3.1-7.9-3.1L263.7,486.3L263.7,486.3z M296.3,489.9h8l4.8-16.5c0.5-1.6,0.7-3.1,0.7-3.1h0.1c0,0,0.2,1.6,0.7,3.1
		l4.8,16.5h8l8.8-28.9h-7.5l-5.1,19c-0.4,1.6-0.6,3-0.6,3h0c0,0-0.2-1.6-0.6-3l-5.3-18.9h-6.4l-5.3,18.9c-0.4,1.6-0.7,3-0.7,3h-0.1
		c0,0-0.1-1.6-0.6-3l-5.1-19h-7.6L296.3,489.9L296.3,489.9z M336,456h7.1v-6.4H336V456L336,456z M336,489.9h7.1V461H336V489.9
		L336,489.9z M350,489.9h7.1v-12.7c0-1.3,0-2.7,0.4-3.6c0.8-3.6,3.4-6.7,7-6.7c3.4,0,3.9,2.7,3.9,5.8v17.2h7.1v-12.7
		c0-1.3,0-2.7,0.4-3.8c0.8-3.6,3.3-6.5,7-6.5c3.4,0,4,2.5,4,5.8v17.2h7.1v-18.5c0-7.6-3.5-11-9.4-11c-4.5,0-8.2,2.8-9.8,5.9h-0.1
		c-1.2-3.9-4-5.9-8.5-5.9s-8,3.1-9.4,6.1h-0.1c0,0,0.1-0.8,0.1-1.9v-3.4h-6.9L350,489.9L350,489.9L350,489.9z M410.8,486.3
		c0,0,4,4.2,11.3,4.2c6.9,0,11-3.9,11-8.7c0-9.3-14-8.8-14-12.8c0-1.8,1.8-2.7,3.6-2.7c4.5,0,7,2.5,7,2.5l2.7-5.3
		c0,0-3.1-3.3-9.7-3.3c-6.2,0-11,3.1-11,8.5c0,9.3,14,8.7,14,13.1c0,1.7-1.8,2.7-3.8,2.7c-4.7,0-7.9-3.1-7.9-3.1L410.8,486.3
		L410.8,486.3z M435.6,475.4c0,8.4,6.2,15.1,15.7,15.1c7.7,0,11.9-4.7,11.9-4.7l-2.8-5.1c0,0-3.6,3.6-8.5,3.6c-5.4,0-9-4.2-9-9.1
		c0-5,3.5-9,8.8-9c4.5,0,7.5,3.1,7.5,3.1l3.1-5c0,0-3.5-4.4-11.1-4.4C441.8,460.3,435.6,467.2,435.6,475.4L435.6,475.4z
		 M467.4,489.9h7.1v-13.3c0-1.3,0.1-2.7,0.5-3.8c1.1-3.5,4-6.1,7.9-6.1c3.6,0,4.6,2.4,4.6,5.9v17.1h7.1v-18.5c0-7.6-3.6-11-10-11
		c-5.1,0-8.6,2.9-9.9,5.7h-0.1c0,0,0.1-1,0.1-2.4v-13.9h-7.1v40.3L467.4,489.9L467.4,489.9z M498.9,475.4c0,8.8,7,15.1,16,15.1
		c8.8,0,15.9-6.2,15.9-15.1c0-8.8-7-15.1-16-15.1C505.9,460.3,498.9,466.5,498.9,475.4L498.9,475.4z M506.2,475.4c0-5.3,3.9-9,8.6-9
		c4.6,0,8.6,3.6,8.6,9s-3.9,9-8.6,9C510.1,484.4,506.2,480.8,506.2,475.4L506.2,475.4z M533.2,475.4c0,8.8,7,15.1,16,15.1
		c8.8,0,15.9-6.2,15.9-15.1c0-8.8-7-15.1-16-15.1C540.2,460.3,533.2,466.5,533.2,475.4L533.2,475.4z M540.4,475.4c0-5.3,3.9-9,8.6-9
		c4.6,0,8.6,3.6,8.6,9s-3.9,9-8.6,9C544.4,484.4,540.4,480.8,540.4,475.4L540.4,475.4z M569.3,480.8c0,8.2,5,9.3,8.8,9.3
		c1.2,0,2.3-0.1,2.3-0.1v-6.3c0,0-0.5,0-1.1,0c-1.8,0-2.9-0.8-2.9-4v-30.1h-7.1V480.8L569.3,480.8z"/>
	<path fill="#FFFFFF" d="M139.8,345.6c0,0-4.4-30.8,5-43c9.3-12.1,20.7-9,25.1-0.4c2.8,5.6,0.5,13-6.3,17.9
		c-6.7,4.8-16.6,7.5-20.9,16.1C140.9,340.1,139.8,345.6,139.8,345.6L139.8,345.6z"/>
	<path fill="#FFFFFF" d="M144.2,340.7c0,0,10.3-12.7,18.4-13.6c8.1-0.7,10.9,4.7,9.2,9.6c-1.1,3.1-4.8,4.8-9.2,4s-8.8-3.8-13.8-2.3
		C146.7,339.3,144.2,340.7,144.2,340.7L144.2,340.7z"/>
	<path fill="#FFFFFF" d="M135.1,331.2c0,0,1.6-16.3-3.6-22.5c-5.2-6.2-11.1-4.2-13.3,0.4c-1.3,3,0,6.9,3.8,9.3c3.6,2.4,9,3.6,11.4,8
		C134.5,328.3,135.1,331.2,135.1,331.2L135.1,331.2z"/>
</g>
</svg>
