<?xml version="1.0" encoding="utf-8"?>
<!-- Generator: Adobe Illustrator 19.2.1, SVG Export Plug-In . SVG Version: 6.00 Build 0)  -->
<svg version="1.1" id="Layer_1" xmlns="http://www.w3.org/2000/svg" xmlns:xlink="http://www.w3.org/1999/xlink" x="0px" y="0px"
	 viewBox="0 0 505.5 184.5" style="enable-background:new 0 0 505.5 184.5;" xml:space="preserve">
<style type="text/css">
	.st0{fill:#43AAE0;}
	.st1{fill:#205CAA;}
</style>
<path class="st0" d="M80.8,84.5c0-0.4,0.1-0.8,1-1.1c4.1-1.6,9.6-6.7,9.6-16c0-12.2-9.2-24.9-32.9-24.9c-9.4,0-20.2,0.8-28.8,0.8
	c-6.2,0-10.1-0.8-14.5-0.8c-3.6,0-4.8,2.1-4.8,4.5c0,1.6,0.3,2.2,1.9,4.6c1.3,1.9,1.4,2.6,1.4,9.6v48.1c0,6.6-0.2,7.8-1.4,9.7
	c-1.6,2.6-1.9,3-1.9,4.7c0,1.3,0.8,4.4,4.3,4.4c3.8,0,8.4-0.8,13.1-0.8c4,0,21.6,1.2,25.7,1.2c7.8,0,18.5-0.5,25.4-3.8
	c12.1-5.6,14.2-17,14.2-21.8V103c0-8.9-4-13.7-11.7-17.6C81,85,80.8,84.7,80.8,84.5L80.8,84.5z M60.9,70.2c0,5.1-3.8,7.4-8.5,7.4
	c-6.5,0-6.6-0.4-6.6-4.1v-6.2c0-2.7,0.1-4.1,5.6-4.1C56.3,63.2,60.9,64.5,60.9,70.2L60.9,70.2z M61.8,98.8c0,5.2-3.8,7.6-8.7,7.6
	c-7.4,0-7.4-0.6-7.4-4.1v-6.8c0-3.2,0.6-4.1,5.2-4.1C56.3,91.3,61.8,92.3,61.8,98.8L61.8,98.8z"/>
<path class="st0" d="M99.7,109.5c0,6.6-0.1,7.8-1.4,9.7c-1.7,2.6-1.8,3-1.8,4.5c0,1.1,0.4,4.5,4.4,4.5c2.9,0,6.7-0.8,15.2-0.8
	c6.6,0,12.1,0.8,14.5,0.8c3.6,0,4.2-2.9,4.2-4.4c0-1.7-0.4-2.3-1.8-4.7c-1-1.6-1.4-2.3-1.4-9.7V77.8c0-7.5,0.3-8.1,1.4-9.7
	c1.6-2.5,1.8-2.9,1.8-4.6c0-1.5-0.4-4.4-4.5-4.4c-3.4,0-8,1.3-13.8,1.3c-7,0-11.1-1.3-15.7-1.3c-2.8,0-4.4,1.7-4.4,4.5
	c0,1.6,0.3,2.1,1.8,4.5c1.3,1.9,1.4,2.9,1.4,9.7L99.7,109.5L99.7,109.5z"/>
<path class="st0" d="M210.4,84.6c0-11.2-6.6-15.8-6.6-17.8c0-0.8,1.4-2.2,2.4-3c2.6-2.6,4.2-6.5,4.2-10.6c0-4.9-2.5-11-10.7-11
	c-7.9,0-9.6,5-9.6,7.6c0,4,3.6,5,3.6,7.5c0,1.2-0.9,2.6-2.3,2.6c-1.9,0-8.3-2.4-17.7-2.4c-19,0-36.3,6.6-36.3,27.9v0.1
	c0,20.1,16.3,26.5,34.2,26.5c1.9,0,4.2-0.4,6.2-0.4c2.4,0,3.5,1.7,3.5,3.4c0,5-8,5-9.8,5c-5.1,0-9.6-0.5-17-2.6
	c-2.3-0.6-5.9-1.7-6.9-1.7c-2.7,0-3.5,2.8-3.8,4c-0.8,3-2.1,6.7-3,8.8c-2.3,5.1-2.6,5.7-2.6,7.4c0,2.3,2.4,3.7,5.6,5
	c2.5,0.9,13.3,4.5,29.4,4.5c14.9,0,22.1-3.1,28.1-8c6.4-5.1,9.5-11.4,9.5-19c0-5-1.7-10.3-4.9-13.7c-1.3-1.4-1.5-1.7-1.5-2.5
	c0-0.4,0-0.9,1.2-2.3C208.9,95.5,210.4,89.5,210.4,84.6L210.4,84.6z M181.2,84.6c0,4.3-3.6,6.6-7.6,6.6c-3.9,0-7.5-2.1-7.5-6.3
	c0-4.1,3.8-6.4,7.5-6.4h0.1C177.3,78.5,181.2,80.5,181.2,84.6L181.2,84.6z"/>
<path class="st1" d="M296.9,102.2c0-8.9-4-13.7-11.7-17.6c-0.6-0.3-0.8-0.6-0.8-0.9c0-0.4,0.1-0.8,1-1.1c4.1-1.6,9.6-6.7,9.6-16
	c0-12.2-9.2-24.9-32.9-24.9c-9.4,0-20.2,0.8-28.8,0.8c-6.2,0-10.1-0.8-14.5-0.8c-3.6,0-4.8,2.1-4.8,4.5c0,1.6,0.3,2.2,1.9,4.6
	c1.3,1.9,1.4,2.6,1.4,9.6v48.1c0,6.6-0.2,7.8-1.4,9.7c-1.6,2.6-1.9,3-1.9,4.7c0,1.3,0.8,4.4,4.3,4.4c3.8,0,8.4-0.8,13.1-0.8
	c4,0,21.6,1.2,25.7,1.2c7.8,0,18.5-0.5,25.4-3.8c12.1-5.6,14.2-17,14.2-21.8V102.2L296.9,102.2z M249.4,66.5c0-2.7,0.1-4.1,5.6-4.1
	c4.9,0,9.5,1.3,9.5,7c0,5.1-3.8,7.4-8.5,7.4c-6.5,0-6.6-0.4-6.6-4.1V66.5L249.4,66.5z M249.4,94.6c0-3.2,0.6-4.1,5.2-4.1
	c5.3,0,10.8,1,10.8,7.5c0,5.2-3.8,7.6-8.7,7.6c-7.4,0-7.4-0.6-7.4-4.1V94.6L249.4,94.6z M301,108.7c0,6.6-0.2,7.8-1.4,9.7
	c-1.6,2.6-1.8,3-1.8,4.5c0,1.2,0.4,4.5,4.4,4.5c3,0,9.4-0.8,14.4-0.8c6.3,0,11.6,0.8,13.8,0.8c3.6,0,4.3-2.9,4.3-4.4
	c0-1.7-0.4-2.3-1.8-4.7c-1-1.6-1.4-2.3-1.4-9.7V47.9c0-2.2,0-6.2-3.6-6.2c-1.4,0-6.6,0.8-11.9,0.8c-4.5,0-9-0.8-13.5-0.8
	c-1.7,0-4.8,0.5-4.8,4.5c0,1.6,0.2,2.1,1.8,4.6c1.2,1.9,1.4,2.3,1.4,9.6V108.7L301,108.7z M369.6,65.8c0-4.8-0.4-7.6-4.7-7.6
	c-1.7,0-5.8,0.8-10.2,0.8c-5.2,0-11.2-0.8-14.6-0.8c-4.3,0-4.5,3.7-4.5,4.5c0,1.6,0.3,2.1,1.9,4.5c1.1,1.7,1.4,2.3,1.4,12.8
	c0,3.1-0.9,18.4-0.9,21.8c0,14.7,6.1,26.6,22.5,26.6c6.7,0,12.3-1.8,17.1-6.1c1-0.9,1.8-1.7,2.2-1.7c0.6,0,0.6,0.2,1.1,2.3
	c0.5,2.7,1,4.5,4.4,4.5c2.6,0,6.9-0.8,9.9-0.8c4.8,0,9.6,0.8,13.2,0.8c3.8,0,4.4-3.1,4.4-4.4c0-1.6-0.2-2.1-1.8-4.7
	c-1.3-2.1-1.4-2.2-1.4-9.7V65.8c0-4.5,0-7.6-4.7-7.6c-2.6,0-6.1,0.8-10.6,0.8c-5.2,0-11-0.8-14.5-0.8c-4.2,0-4.4,3.6-4.4,4.5
	c0,1.5,0.2,1.9,1.8,4.5c1.2,1.9,1.4,2.2,1.4,9.7l-0.1,17.9c0,0.5,0.2,3.2,0.2,3.9c0,2.5-1.5,4.2-4.1,4.2c-5.2,0-5.2-5.5-5.2-11.2
	V65.8L369.6,65.8z M482.2,98.7c3.9,0,5.3-1.4,5.3-7.1c0-22.9-13-35-35.6-35c-27,0-37.6,16.8-37.6,36.4c0,25.5,17,36.1,40.7,36.1
	c8.9,0,17.6-1.4,20.8-2.2c3.8-0.9,4.9-1.9,5.3-4.2c0.6-3.2,1.2-7,2.1-9.8c1-3.1,1.7-5.5,1.7-6.4c0-1.1-1-2.8-3.1-2.8
	c-1,0-4.4,0.9-6.6,1.3c-6.6,1.3-10.1,1.6-15.4,1.6c-3.9,0-13.4-0.6-13.4-6.5c0-1.4,1-1.4,3.4-1.4H482.2L482.2,98.7z M448.9,86.7
	c-2.8,0-3.2-0.8-3.2-2.3c0-4.2,2.9-7.2,7.1-7.2c4.3,0,7,2.8,7,7.1c0,1.7-0.8,2.4-4.3,2.4H448.9L448.9,86.7z"/>
<path class="st1" d="M495.5,63.4c0-2.6-2.2-4.6-5-4.6c-2.8,0-5,2-5,4.6c0,2.6,2.2,4.6,5,4.6C493.3,68,495.5,66,495.5,63.4
	L495.5,63.4z M494.8,63.4c0,2.2-1.8,3.9-4.2,3.9c-2.4,0-4.2-1.7-4.2-3.9c0-2.2,1.9-3.9,4.2-3.9C492.9,59.5,494.8,61.2,494.8,63.4
	L494.8,63.4z M491.6,63.8c0.5-0.1,1.2-0.5,1.2-1.5c0-1-0.8-1.6-2.1-1.6h-2.1v5.4h1.2V64h0.6l1.2,2.1h1.4L491.6,63.8L491.6,63.8z
	 M491.5,62.3c0,0.6-0.5,0.7-1.1,0.7h-0.7v-1.5h0.7C491,61.6,491.5,61.7,491.5,62.3L491.5,62.3z"/>
<path class="st1" d="M217.8,166.8c0,0,3.3,3.5,9.3,3.5c5.7,0,9.1-3.2,9.1-7.2c0-7.7-11.6-7.3-11.6-10.6c0-1.5,1.5-2.2,3-2.2
	c3.7,0,5.9,2.1,5.9,2.1l2.2-4.4c0,0-2.6-2.7-8-2.7c-5.1,0-9.1,2.6-9.1,7c0,7.7,11.6,7.2,11.6,10.8c0,1.4-1.5,2.2-3.1,2.2
	c-3.9,0-6.5-2.6-6.5-2.6L217.8,166.8L217.8,166.8z M244.7,169.8h6.6l4-13.6c0.4-1.3,0.6-2.6,0.6-2.6h0.1c0,0,0.2,1.3,0.6,2.6l4,13.6
	h6.6l7.3-23.9h-6.2l-4.2,15.7c-0.3,1.3-0.5,2.5-0.5,2.5h-0.1c0,0-0.2-1.3-0.5-2.5l-4.4-15.6h-5.3l-4.4,15.6
	c-0.3,1.3-0.6,2.5-0.6,2.5h-0.1c0,0-0.1-1.3-0.5-2.5l-4.2-15.7h-6.3L244.7,169.8L244.7,169.8z M277.5,141.8h5.9v-5.3h-5.9V141.8
	L277.5,141.8z M277.5,169.8h5.9v-23.9h-5.9V169.8L277.5,169.8z M289.1,169.8h5.9v-10.5c0-1.1,0-2.2,0.3-3c0.7-3,2.8-5.5,5.8-5.5
	c2.8,0,3.2,2.2,3.2,4.8v14.2h5.9v-10.5c0-1.1,0-2.2,0.3-3.1c0.7-3,2.7-5.4,5.8-5.4c2.8,0,3.3,2.1,3.3,4.8v14.2h5.9v-15.3
	c0-6.3-2.9-9.1-7.8-9.1c-3.7,0-6.8,2.3-8.1,4.9h-0.1c-1-3.2-3.3-4.9-7-4.9c-3.7,0-6.6,2.6-7.8,5h-0.1c0,0,0.1-0.7,0.1-1.6v-2.8h-5.7
	V169.8L289.1,169.8z M339.3,166.8c0,0,3.3,3.5,9.3,3.5c5.7,0,9.1-3.2,9.1-7.2c0-7.7-11.6-7.3-11.6-10.6c0-1.5,1.5-2.2,3-2.2
	c3.7,0,5.8,2.1,5.8,2.1l2.2-4.4c0,0-2.6-2.7-8-2.7c-5.1,0-9.1,2.6-9.1,7c0,7.7,11.6,7.2,11.6,10.8c0,1.4-1.5,2.2-3.1,2.2
	c-3.9,0-6.5-2.6-6.5-2.6L339.3,166.8L339.3,166.8z M359.8,157.8c0,6.9,5.1,12.5,13,12.5c6.4,0,9.8-3.9,9.8-3.9l-2.3-4.2c0,0-3,3-7,3
	c-4.5,0-7.4-3.5-7.4-7.5c0-4.1,2.9-7.4,7.3-7.4c3.7,0,6.2,2.6,6.2,2.6l2.6-4.1c0,0-2.9-3.6-9.2-3.6
	C364.9,145.4,359.8,151.1,359.8,157.8L359.8,157.8z M386.1,169.8h5.9v-11c0-1.1,0.1-2.2,0.4-3.1c0.9-2.9,3.3-5,6.5-5
	c3,0,3.8,2,3.8,4.9v14.1h5.9v-15.3c0-6.3-3-9.1-8.3-9.1c-4.2,0-7.1,2.4-8.2,4.7H392c0,0,0.1-0.8,0.1-2v-11.5h-5.9V169.8L386.1,169.8
	z M412.1,157.8c0,7.3,5.8,12.5,13.2,12.5c7.3,0,13.1-5.1,13.1-12.5c0-7.3-5.8-12.5-13.2-12.5C417.9,145.4,412.1,150.5,412.1,157.8
	L412.1,157.8z M418.1,157.8c0-4.4,3.2-7.4,7.1-7.4c3.8,0,7.1,3,7.1,7.4c0,4.4-3.2,7.4-7.1,7.4C421.3,165.3,418.1,162.3,418.1,157.8
	L418.1,157.8z M440.4,157.8c0,7.3,5.8,12.5,13.2,12.5c7.3,0,13.1-5.1,13.1-12.5c0-7.3-5.8-12.5-13.2-12.5
	C446.2,145.4,440.4,150.5,440.4,157.8L440.4,157.8z M446.4,157.8c0-4.4,3.2-7.4,7.1-7.4c3.8,0,7.1,3,7.1,7.4c0,4.4-3.2,7.4-7.1,7.4
	C449.7,165.3,446.4,162.3,446.4,157.8L446.4,157.8z M470.2,162.3c0,6.8,4.1,7.7,7.3,7.7c1,0,1.9-0.1,1.9-0.1v-5.2c0,0-0.4,0-0.9,0
	c-1.5,0-2.4-0.7-2.4-3.3v-24.9h-5.9V162.3L470.2,162.3z"/>
<path class="st0" d="M115.5,50.6c0,0-3.6-25.4,4.1-35.5c7.7-10,17.1-7.4,20.7-0.3c2.3,4.6,0.4,10.7-5.2,14.8
	c-5.5,4-13.7,6.2-17.3,13.3C116.4,46.1,115.5,50.6,115.5,50.6L115.5,50.6z"/>
<path class="st0" d="M119.1,46.6c0,0,8.5-10.5,15.2-11.2c6.7-0.6,9,3.9,7.6,7.9c-0.9,2.6-4,4-7.6,3.3c-3.6-0.7-7.3-3.1-11.4-1.9
	C121.2,45.4,119.1,46.6,119.1,46.6L119.1,46.6z"/>
<path class="st0" d="M111.6,38.7c0,0,1.3-13.5-3-18.6c-4.3-5.1-9.2-3.5-11,0.3c-1.1,2.5,0,5.7,3.1,7.7c3,2,7.4,3,9.4,6.6
	C111.1,36.3,111.6,38.7,111.6,38.7L111.6,38.7z"/>
</svg>
