<?xml version="1.0" encoding="utf-8"?>
<!-- Generator: Adobe Illustrator 19.2.1, SVG Export Plug-In . SVG Version: 6.00 Build 0)  -->
<svg version="1.1" id="Layer_1" xmlns="http://www.w3.org/2000/svg" xmlns:xlink="http://www.w3.org/1999/xlink" x="0px" y="0px"
	 viewBox="0 0 54.3 49.5" style="enable-background:new 0 0 54.3 49.5;" xml:space="preserve">
<style type="text/css">
	.st0{fill:#43AAE0;}
</style>
<path class="st0" d="M22.2,46.1c0,0-3.6-25.4,4.1-35.5c7.7-10,17.1-7.4,20.7-0.3c2.3,4.6,0.4,10.7-5.2,14.8
	c-5.5,4-13.7,6.2-17.3,13.3C23.1,41.5,22.2,46.1,22.2,46.1L22.2,46.1z"/>
<path class="st0" d="M25.9,42.1c0,0,8.5-10.5,15.2-11.2c6.7-0.6,9,3.9,7.6,7.9c-0.9,2.6-4,4-7.6,3.3c-3.6-0.7-7.3-3.1-11.4-1.9
	C27.9,40.8,25.9,42.1,25.9,42.1L25.9,42.1z"/>
<path class="st0" d="M18.4,34.2c0,0,1.3-13.5-3-18.6c-4.3-5.1-9.2-3.5-11,0.3c-1.1,2.5,0,5.7,3.1,7.7c3,2,7.4,3,9.4,6.6
	C17.8,31.8,18.4,34.2,18.4,34.2L18.4,34.2z"/>
</svg>
